<svg width="48" height="24" viewBox="0 0 48 24" fill="none" xmlns="http://www.w3.org/2000/svg">
<g clip-path="url(#clip0_1_42)">
<path d="M12 -0.0199881H36C42.6274 -0.0199881 48 5.35259 48 11.98C48 18.6074 42.6274 23.98 36 23.98H12C5.37258 23.98 0 18.6074 0 11.98C0 5.35259 5.37258 -0.0199881 12 -0.0199881Z" fill="#7C6BD3"/>
<g opacity="0.35" filter="url(#filter0_f_1_42)">
<path d="M36 22C40.9706 22 45 17.9706 45 13C45 8.02944 40.9706 4 36 4C31.0294 4 27 8.02944 27 13C27 17.9706 31.0294 22 36 22Z" fill="black"/>
</g>
<path d="M36 21C40.9706 21 45 16.9706 45 12C45 7.02944 40.9706 3 36 3C31.0294 3 27 7.02944 27 12C27 16.9706 31.0294 21 36 21Z" fill="#242424"/>
<path opacity="0.1" d="M12 -0.0195312C5.35201 -0.0195312 0 5.33248 0 11.9805C0 12.1515 0.00665429 12.321 0.0136719 12.4902C0.279388 6.08089 5.52306 1 12 1H36C42.4769 1 47.7206 6.08089 47.9863 12.4902C47.9933 12.321 48 12.1515 48 11.9805C48 5.33248 42.648 -0.0195312 36 -0.0195312H12Z" fill="white"/>
<path opacity="0.1" d="M36 3C33.6131 3 31.3239 3.94821 29.636 5.63604C27.9482 7.32387 27 9.61305 27 12C27.0071 12.167 27.0188 12.3337 27.0352 12.5C27.1627 10.2068 28.1622 8.04919 29.8289 6.46894C31.4955 4.8887 33.7033 4.00542 36 4C38.2756 4.00065 40.4665 4.8633 42.1317 6.41431C43.7968 7.96532 44.8126 10.0895 44.9746 12.3594C44.9855 12.2398 44.9939 12.1199 45 12C45 9.61305 44.0518 7.32387 42.364 5.63604C40.6761 3.94821 38.3869 3 36 3Z" fill="white"/>
</g>
<defs>
<filter id="filter0_f_1_42" x="24.795" y="1.795" width="22.41" height="22.41" filterUnits="userSpaceOnUse" color-interpolation-filters="sRGB">
<feFlood flood-opacity="0" result="BackgroundImageFix"/>
<feBlend mode="normal" in="SourceGraphic" in2="BackgroundImageFix" result="shape"/>
<feGaussianBlur stdDeviation="1.1025" result="effect1_foregroundBlur_1_42"/>
</filter>
<clipPath id="clip0_1_42">
<rect width="48" height="24" fill="white"/>
</clipPath>
</defs>
</svg>
